HIERARCHY
ROOT Hips
{
	OFFSET 0.00000 0.00000 0.00000
	CHANNELS 6 Xposition Yposition Zposition Yrotation Zrotation Xrotation 
	JOINT Lumbar
	{
		OFFSET 0 0 0
		CHANNELS 3 Zrotation Xrotation Yrotation
		JOINT Neck
		{
			OFFSET 0.00 0.2701 0.00
			CHANNELS 3 Zrotation Xrotation Yrotation
			End Site
			{
				OFFSET 0.00 0.1379 0.00
			}
		}
		JOINT RightShoulder
		{
			OFFSET 0.0119 0.2289 0.1181
			CHANNELS 3 Zrotation Xrotation Yrotation
			JOINT RightElbow
			{
				OFFSET 0.00 -0.1475 0.00
				CHANNELS 2 Zrotation Yrotation
				JOINT RightWrist
				{
					OFFSET 0.00 -0.1605 0.00
					CHANNELS 2 Zrotation Xrotation
					End Site
					{
						OFFSET 0.0040 -0.1068 0.0006
					}
				}
			}
		}
		JOINT LeftShoulder
		{
			OFFSET 0.0119 0.2289 -0.1181
			CHANNELS 3 Zrotation Xrotation Yrotation
			JOINT LeftElbow
			{
				OFFSET 0.00 -0.1475 0.00
				CHANNELS 2 Zrotation Yrotation
				JOINT LeftWrist
				{
					OFFSET 0.00 -0.1605 0.00
					CHANNELS 2 Zrotation Xrotation
					End Site
					{
						OFFSET 0.0040 -0.1068 -0.0006
					}
				}
			}
		}
	}
	JOINT RightHip
	{
		OFFSET 0.0316 -0.0424 0.0458
		CHANNELS 3 Zrotation Xrotation Yrotation
		JOINT RightKnee
		{
			OFFSET 0.00 -0.2438 0.00
			CHANNELS 1 Zrotation
			JOINT RightAnkle
			{
				OFFSET 0.00 -0.2449 0.00
				CHANNELS 3 Zrotation Xrotation Yrotation
				End Site
				{
					OFFSET 0.1237 -0.0542 0.0051
				}
			}
		}
	}
	JOINT LeftHip
	{
		OFFSET 0.0316 -0.0424 -0.0458
		CHANNELS 3 Zrotation Xrotation Yrotation
		JOINT LeftKnee
		{
			OFFSET 0.00 -0.2438 0.00
			CHANNELS 1 Zrotation
			JOINT LeftAnkle
			{
				OFFSET 0.00 -0.2449 0.00
				CHANNELS 3 Zrotation Xrotation Yrotation
				End Site
				{
					OFFSET 0.1237 -0.0542 -0.0051
				}
			}
		}
	}
}
MOTION
Frames: 34
Frame Time: 0.02
-1.83637 0.59049 0.05304 519.63423 0 -11.03558 -11.31286 -6.76524 36.30626 -65.37271 35.14087 -27.47482 64.89001 -3.9587 8.59123 13.23478 82.05929 -1.27744 -7.66341 76.05044 37.94719 -9.76914 18.70801 -96.47128 -10.63036 7.25379 3.48368 6.29245 15.51891 -9.58046 -17.42903 -1.33094 -3.49307 -2.46962 6.70282 18.23889 -0.87294 -7.55148 1.69384 2.18949
-1.83423 0.59063 0.05312 519.57099 0 -11.1888 -11.64996 -6.94313 36.55877 -65.30746 34.91527 -27.31103 64.63191 -3.8473 8.72759 13.11481 82.07649 -1.19933 -7.52202 76.09112 37.99063 -9.80557 18.5461 -95.98486 -10.44795 7.29304 3.06219 6.02547 13.6375 -9.42809 -16.87802 -1.33367 -4.48837 -2.31675 6.90087 17.77324 -0.8021 -7.7026 1.73544 2.74607
-1.83184 0.5908 0.05305 519.43889 0 -11.33278 -12.01211 -7.15847 37.24103 -65.29287 34.84496 -27.29191 64.46066 -3.53463 9.00441 12.96114 82.09079 -1.07832 -7.36373 76.2366 38.18845 -9.94082 18.40826 -95.41087 -10.29766 7.3804 2.9136 5.78468 10.33871 -9.914 -16.33176 -1.29675 -5.89901 -2.13643 7.11858 17.21721 -0.76894 -7.86366 1.78021 3.40004
-1.82955 0.59096 0.05304 519.34406 0 -11.48017 -12.36516 -7.35627 37.71401 -65.2542 34.70105 -27.20877 64.25819 -3.31619 9.2419 12.82943 82.1036 -0.97406 -7.21743 76.31422 38.31758 -9.99903 18.25967 -94.88975 -10.13743 7.43927 2.64982 5.53515 7.76556 -10.13392 -15.78715 -1.27977 -7.09914 -1.97441 7.32443 16.75763 -0.70317 -8.0258 1.8188 3.95326
-1.8273 0.59114 0.05306 519.22635 0 -11.63056 -12.71124 -7.55723 38.23603 -65.21746 34.56162 -27.10806 64.01628 -3.09406 9.3778 12.66928 82.12884 -0.87986 -7.05092 76.46932 38.42991 -10.18949 18.1097 -94.31638 -9.95732 7.52573 2.34342 5.26403 4.83271 -10.24139 -15.22069 -1.25482 -8.40433 -1.79146 7.54053 16.07405 -0.69395 -8.16771 1.87646 4.73533
-1.8249 0.59127 0.05299 519.14098 0 -11.77232 -13.07706 -7.76002 38.76242 -65.19016 34.45454 -27.08085 63.87965 -2.83024 9.75542 12.56126 82.12748 -0.75647 -6.9243 76.493 38.61584 -10.12965 17.96716 -93.82871 -9.82503 7.56615 2.19158 5.04882 2.32119 -10.73839 -14.70336 -1.23708 -9.58146 -1.64104 7.74164 15.81952 -0.58532 -8.35094 1.89667 5.07691
-1.82215 0.59128 0.05275 519.13726 0 -11.89595 -13.48664 -7.96012 39.18889 -65.17087 34.37903 -27.24128 64.00419 -2.47975 10.79835 12.59583 82.0511 -0.5459 -6.89899 76.10225 38.99646 -9.35009 17.85679 -93.6131 -9.83321 7.46915 2.41425 4.96252 1.28323 -12.16382 -14.31731 -1.24805 -10.33835 -1.62786 7.88463 16.92952 -0.1146 -8.67058 1.79785 4.05803
-1.81925 0.59124 0.05243 519.17212 0 -12.01045 -13.91509 -8.16035 39.60798 -65.1607 34.3354 -27.4705 64.23423 -2.09509 12.07448 12.68544 81.94856 -0.31051 -6.91679 75.58073 39.44427 -8.31678 17.75031 -93.48337 -9.88573 7.32381 2.78204 4.93604 0.72466 -13.96135 -13.98192 -1.26778 -10.94448 -1.64212 8.01365 18.44942 0.44529 -9.02776 1.66368 2.61152
-1.81642 0.59123 0.05212 519.20503 0 -12.12728 -14.33816 -8.35953 40.03567 -65.15028 34.29093 -27.65438 64.42133 -1.74045 13.222 12.75648 81.85912 -0.09781 -6.92371 75.13754 39.84141 -7.40253 17.63062 -93.30564 -9.90734 7.19987 3.07383 4.89563 -0.02478 -15.58148 -13.62626 -1.28408 -11.59473 -1.61538 8.15776 19.67408 0.90925 -9.34996 1.55573 1.44369
-1.81359 0.59121 0.05191 519.17085 0 -12.25238 -14.75087 -8.5644 40.45415 -65.12497 34.19375 -27.89487 64.58832 -1.32466 14.46724 12.80042 81.76368 0.16413 -6.89394 74.62029 40.32029 -6.47459 17.55923 -93.16503 -9.97496 7.08057 3.41428 4.80017 -0.92891 -17.24976 -13.25904 -1.29672 -12.36096 -1.70253 8.26798 21.33991 1.59469 -9.74371 1.40615 -0.0633
-1.81071 0.59118 0.05149 519.28518 0 -12.35707 -15.18653 -8.75674 40.88684 -65.13241 34.21239 -28.04153 64.82356 -1.02211 15.56589 12.91273 81.67559 0.32939 -6.95016 74.22214 40.65344 -5.51524 17.38886 -92.96575 -9.95748 6.93878 3.68826 4.83314 -1.38971 -18.90904 -12.92787 -1.3195 -12.84649 -1.56639 8.44228 22.20495 1.85447 -10.00284 1.33341 -0.9836
-1.80773 0.59114 0.05055 519.81133 0 -12.41657 -15.70366 -8.91629 41.33794 -65.22587 34.53791 -27.82752 65.19969 -1.11739 16.17113 13.21443 81.60499 0.21685 -7.24131 74.20902 40.47419 -4.5171 16.9355 -92.6096 -9.68878 6.75294 3.70629 5.20675 -0.63643 -20.34786 -12.68402 -1.36903 -12.57121 -0.74519 8.82158 20.5876 0.7945 -9.83153 1.49372 -0.03181
-1.8047 0.59108 0.04942 520.48391 0 -12.45371 -16.23827 -9.06281 41.8051 -65.35196 34.9785 -27.53003 65.64383 -1.31631 16.6248 13.5808 81.54416 0.00689 -7.61623 74.31571 40.16039 -3.49842 16.38395 -92.18768 -9.33378 6.54488 3.6565 5.70683 0.53579 -21.77664 -12.4744 -1.42849 -12.01951 0.29081 9.26085 18.18028 -0.6756 -9.53194 1.73024 1.49915
-1.80168 0.59101 0.04836 521.08235 0 -12.49593 -16.75062 -9.21377 42.27829 -65.46457 35.36975 -27.32797 66.0715 -1.41606 17.16939 13.9082 81.48527 -0.15561 -7.94747 74.35064 39.97178 -2.49769 15.88286 -91.7783 -9.02158 6.34246 3.66243 6.14912 1.45034 -23.28112 -12.24927 -1.48303 -11.60865 1.18682 9.65684 16.25006 -1.87518 -9.32437 1.9239 2.66527
-1.79868 0.59099 0.04736 521.71388 0 -12.56139 -17.32654 -9.37057 42.69756 -65.57263 35.75212 -26.89314 66.44466 -1.72672 17.63409 14.27701 81.39964 -0.33086 -8.30341 74.45232 39.52478 -1.4511 15.35704 -91.44232 -8.69565 6.15658 3.57441 6.59687 2.65582 -24.51716 -12.02671 -1.53962 -11.13367 2.25751 10.12135 13.84495 -3.41975 -8.97862 2.15125 4.23741
-1.79565 0.59088 0.04619 522.31113 0 -12.57062 -17.77089 -9.51267 43.23005 -65.69681 36.17685 -26.91305 66.94274 -1.63273 18.21997 14.57541 81.371 -0.50276 -8.62784 74.44745 39.57113 -0.49935 14.85966 -90.94023 -8.37747 5.93238 3.65658 7.05997 3.35997 -26.28182 -11.80504 -1.59415 -10.72211 3.01984 10.45587 12.2242 -4.35323 -8.88615 2.32676 5.11726
-1.79249 0.59055 0.04461 522.77485 0 -12.45256 -17.87347 -9.61211 44.09525 -65.86551 36.71505 -28.28864 67.7973 -0.31428 19.22895 14.65285 81.50951 -0.644 -8.83909 74.09919 41.11511 0.18964 14.46304 -89.96521 -8.0998 5.60156 4.28779 7.55579 2.48147 -29.70329 -11.58759 -1.64096 -10.61123 2.84266 10.43113 13.06326 -3.42184 -9.55546 2.34257 3.85663
-1.78931 0.59012 0.04287 523.19944 0 -12.27448 -17.83799 -9.69794 45.06881 -66.04759 37.28651 -30.10936 68.76916 1.39935 20.35428 14.65883 81.70307 -0.77825 -9.01647 73.64381 43.14056 0.77868 14.09933 -88.83069 -7.83325 5.2347 5.07989 8.05833 1.10005 -33.61776 -11.3677 -1.68531 -10.56587 2.35442 10.2708 14.69849 -1.8758 -10.47834 2.30348 1.89739
-1.78617 0.58972 0.04121 523.64372 0 -12.10922 -17.84887 -9.79373 45.97772 -66.21848 37.82715 -31.67396 69.66862 2.87854 21.39148 14.70441 81.8634 -0.91409 -9.21297 73.25129 44.87833 1.41168 13.72096 -87.78842 -7.56239 4.88818 5.75697 8.54367 0.00886 -37.17826 -11.14199 -1.73042 -10.45038 2.03211 10.16336 15.90069 -0.6626 -11.26436 2.28821 0.31766
-1.78291 0.5894 0.03951 524.08496 0 -12.00438 -17.93005 -9.87412 46.95447 -66.41279 38.44062 -33.46366 70.65222 4.58646 22.57251 14.72264 82.05806 -1.05964 -9.39705 72.80351 46.90305 2.05889 13.33548 -86.65976 -7.28452 4.52256 6.60989 9.09357 -1.32964 -41.29151 -10.94672 -1.77716 -10.48622 1.61392 10.09529 17.37468 0.76083 -12.13638 2.2799 -1.50268
-1.7799 0.58889 0.03785 524.52149 0 -11.75951 -17.83112 -9.98231 47.81265 -66.56017 38.90569 -34.89039 71.48619 5.91219 23.48338 14.77947 82.19499 -1.18253 -9.59738 72.44324 48.44517 2.64349 12.97697 -85.67489 -7.02615 4.19043 7.13413 9.50844 -2.27565 -44.36519 -10.68708 -1.82009 -10.23771 1.31835 9.9117 18.48379 1.89946 -12.89222 2.24363 -2.99689
-1.77758 0.5879 0.03628 524.95221 0 -11.14512 -17.27448 -10.18028 48.34084 -66.58252 38.97899 -35.21343 71.88923 6.09401 23.6209 14.96429 82.15198 -1.23952 -9.85417 72.35638 48.5453 3.15556 12.65949 -85.1196 -6.80966 3.94338 6.7249 9.55243 -2.04011 -44.49352 -10.24936 -1.85065 -9.08905 1.44052 9.44696 18.37734 2.08768 -13.25689 2.13859 -3.40776
-1.77551 0.58672 0.03475 525.37917 0 -10.39191 -16.54037 -10.40451 48.74162 -66.55568 38.89663 -35.15456 72.13547 5.87635 23.48291 15.1892 82.05017 -1.27423 -10.12715 72.36023 48.14195 3.59343 12.37348 -84.71661 -6.61474 3.73464 5.97769 9.45907 -1.39174 -43.55085 -9.74687 -1.87795 -7.67152 1.69541 8.86986 17.88271 1.97259 -13.49819 2.00797 -3.47136
-1.77331 0.58562 0.03321 525.80874 0 -9.70023 -15.88329 -10.61099 49.18466 -66.5459 38.86738 -35.26635 72.44568 5.83698 23.47119 15.39307 81.97996 -1.32214 -10.39045 72.31758 47.96463 4.01582 12.08995 -84.24779 -6.41619 3.51883 5.37597 9.42541 -0.91528 -43.06746 -9.27455 -1.9082 -6.44379 1.8862 8.3403 17.57827 2.00742 -13.80198 1.89182 -3.70465
-1.7712 0.58454 0.03164 526.23353 0 -9.0114 -15.23584 -10.84336 49.69662 -66.55843 38.9125 -35.40697 72.78989 5.82589 23.45946 15.60706 81.89139 -1.35758 -10.66354 72.29117 47.81698 4.64388 11.73574 -83.75685 -6.19117 3.25717 4.81175 9.4031 -0.5138 -42.71391 -8.79937 -1.93186 -4.93405 2.08136 7.81926 17.24248 2.01271 -14.08705 1.76137 -3.91198
-1.76894 0.58339 0.03013 526.66751 0 -8.28648 -14.52906 -11.02595 50.03449 -66.5133 38.76696 -35.38971 73.02567 5.6549 23.38019 15.80955 81.82601 -1.41294 -10.91913 72.25683 47.4802 4.82545 11.53694 -83.35306 -6.02723 3.10174 4.08994 9.32502 0.13763 -41.83317 -8.3144 -1.96891 -3.94536 2.30406 7.25761 16.87008 1.9992 -14.379 1.65586 -4.08171
-1.76631 0.58205 0.0288 527.13117 0 -7.47951 -13.69335 -11.08344 49.91187 -66.31518 38.11864 -35.03955 72.9894 5.14698 23.18652 15.97771 81.84196 -1.53559 -11.13415 72.15267 46.75513 3.80855 11.75019 -83.13259 -6.01917 3.2206 2.99069 9.12138 1.473 -39.72149 -7.82215 -2.03999 -4.47484 2.56256 6.59472 16.48121 2.00788 -14.71415 1.62099 -4.22886
-1.7635 0.58065 0.02754 527.60409 0 -6.64477 -12.8066 -11.08602 49.61968 -66.06179 37.28657 -34.54001 72.85081 4.48896 22.93279 16.1317 81.88249 -1.67776 -11.32879 72.04238 45.85295 2.34306 12.12037 -83.00119 -6.07359 3.44691 1.74877 8.8675 3.03092 -37.12097 -7.32202 -2.12518 -5.53414 2.84748 5.8989 16.06493 2.00469 -15.05985 1.61296 -4.34574
-1.76072 0.57929 0.02624 528.07028 0 -5.83331 -11.94914 -11.10211 49.41206 -65.83736 36.54757 -34.09984 72.76576 3.89278 22.70311 16.28805 81.90958 -1.80659 -11.52551 71.95272 45.022 1.07184 12.42469 -82.8404 -6.10378 3.63069 0.58728 8.63964 4.42675 -34.76582 -6.8224 -2.20658 -6.34292 3.12661 5.22938 15.66653 2.00443 -15.40402 1.59622 -4.47754
-1.75817 0.57787 0.02495 528.54554 0 -4.97041 -11.05853 -11.16938 49.16941 -65.59478 35.76174 -33.6811 72.64588 3.30859 22.47822 16.46383 81.94417 -1.95371 -11.75388 71.79219 44.21173 -0.16456 12.70702 -82.62959 -6.11552 3.78966 -0.65331 8.39257 6.09216 -32.27446 -6.33166 -2.27753 -7.18759 3.38275 4.50684 15.24024 2.00597 -15.73231 1.56497 -4.5995
-1.7551 0.57656 0.02366 529.00592 0 -4.21184 -10.22859 -11.1142 48.95977 -65.37778 35.03316 -33.18904 72.5759 2.6705 22.23188 16.59417 81.96983 -2.06743 -11.9103 71.77491 43.32429 -1.57525 13.07209 -82.55269 -6.18229 4.02475 -1.7567 8.17657 7.24589 -29.96606 -5.82367 -2.37272 -8.08167 3.69284 3.88984 14.86039 2.00286 -16.09517 1.56925 -4.73074
-1.75068 0.5755 0.02233 529.40736 0 -3.73188 -9.56764 -10.75569 48.89525 -65.24308 34.49756 -32.51566 72.67209 1.90798 21.9483 16.61166 81.96412 -2.08627 -11.88113 72.1688 42.2558 -3.38856 13.62568 -82.72849 -6.36709 4.44846 -2.46119 8.04865 6.91089 -28.27478 -5.2514 -2.53933 -9.02845 4.13213 3.56081 14.70696 2.00695 -16.57218 1.67766 -4.9714
-1.74575 0.57455 0.021 529.79603 0 -3.36151 -8.9725 -10.27199 48.8685 -65.1367 34.02897 -31.77817 72.8219 1.10055 21.6449 16.58197 81.94906 -2.07063 -11.77862 72.70351 41.12019 -5.35486 14.25664 -83.04966 -6.60762 4.94389 -3.01808 7.95607 6.05511 -26.79162 -4.66619 -2.72835 -9.99969 4.6263 3.34179 14.58896 2.00498 -17.07944 1.819 -5.21215
-1.74103 0.57357 0.01968 530.20128 0 -2.95248 -8.35537 -9.83118 48.81645 -65.01873 33.53659 -31.0823 72.9461 0.32392 21.3476 16.56773 81.93894 -2.06942 -11.70431 73.16466 40.02542 -7.2313 14.85382 -83.37026 -6.83587 5.40334 -3.6313 7.85482 5.44992 -25.22314 -4.09897 -2.90198 -10.93069 5.10385 3.08068 14.39286 1.99611 -17.56051 1.93676 -5.40154
